# xmcd
#
# Track frame offsets: 
#        150
#        7547
#        27602
#        40497
#        51530
#        64040
#        88175
#        100102
#        126900
#        138642
#        150495
#        162992
#        174715
#        208437
#        224712
#        242675
#        269057
#        278767
#        289852
#        299950
#
# Disc length: 4235 seconds
#
# Revision: 7
# Processed by: cddbd v1.5.2PL0 Copyright (c) Steve Scherf et al.
# Submitted via: ExactAudioCopyFreeDBPlugin 1.0
#
DISCID=4b108914
DTITLE=The Isley Brothers - It's Your Thing:  The Story of The Isley B
DTITLE=rothers
DYEAR=1999
DGENRE=Rhythm and Blues
TTITLE0=Building Up to Shout (live at Yankee Stadium, 1969)
TTITLE1=Shout (Parts 1 and 2)
TTITLE2=Shout (live from the TV show "Shindig")
TTITLE3=Twist and Shout
TTITLE4=Who's That Lady
TTITLE5=Time After Time
TTITLE6=Move Over and Let Me Dance
TTITLE7=Testify (Parts 1 and 2)
TTITLE8=This Old Heart of Mine (Is Weak for You)
TTITLE9=Take Me in Your Arms (Rock Me a Little While)
TTITLE10=It's Your Thing
TTITLE11=I Turned You On
TTITLE12=Get Into Something
TTITLE13=Freedom
TTITLE14=Keep on Doin'
TTITLE15=The Blacker The Berrie (aka "Black Berries")
TTITLE16=Rockin' McDonald
TTITLE17=Don't Be Jealous
TTITLE18=Angels Cried
TTITLE19=It's Your Thing (live at Yankee Stadium, 1969)
EXTD=
EXTT0=
EXTT1=
EXTT2=
EXTT3=
EXTT4=
EXTT5=
EXTT6=
EXTT7=
EXTT8=
EXTT9=
EXTT10=
EXTT11=
EXTT12=
EXTT13=
EXTT14=
EXTT15=
EXTT16=
EXTT17=
EXTT18=
EXTT19=
PLAYORDER=
